<?xml version="1.0" encoding="UTF-8" standalone="no" ?>
<!DOCTYPE svg PUBLIC "-//W3C//DTD SVG 1.1//EN" "http://www.w3.org/Graphics/SVG/1.1/DTD/svg11.dtd">
<svg xmlns="http://www.w3.org/2000/svg" xmlns:xlink="http://www.w3.org/1999/xlink" version="1.1" width="640" height="640" viewBox="0 0 640 640" xml:space="preserve">
<desc>Created with Fabric.js 4.6.0</desc>
<defs>
</defs>
<g transform="matrix(1 0 0 1 320 320)" id="c6oGEJaMLlirXH-pVuZER"  >
<g style="" vector-effect="non-scaling-stroke"   >
		<g transform="matrix(1 0 0 1 -135.44 -156.41)" id="35Kxk_933b0XWgn2XIEpD"  >
<path style="stroke: none; stroke-width: 1; stroke-dasharray: none; stroke-linecap: butt; stroke-dashoffset: 0; stroke-linejoin: miter; stroke-miterlimit: 4; fill: rgb(255,255,255); fill-rule: nonzero; opacity: 1;" vector-effect="non-scaling-stroke"  transform=" translate(-249.68, -355.37)" d="M 249.683 277.153 L 114.22899999999998 355.36400000000003 L 249.683 433.57900000000006 L 385.128 355.35300000000007 z" stroke-linecap="round" />
</g>
		<g transform="matrix(1 0 0 1 -67.71 39.1)" id="aJKM49m1xojyk1du1BQrw"  >
<path style="stroke: none; stroke-width: 1; stroke-dasharray: none; stroke-linecap: butt; stroke-dashoffset: 0; stroke-linejoin: miter; stroke-miterlimit: 4; fill: rgb(15,15,255); fill-rule: nonzero; opacity: 1;" vector-effect="non-scaling-stroke"  transform=" translate(-317.41, -550.87)" d="M 249.683 589.95 L 385.144 668.1690000000001 L 385.144 511.77800000000013 L 249.683 433.5790000000001 z" stroke-linecap="round" />
</g>
		<g transform="matrix(1 0 0 1 67.75 195.52)" id="Vv6CUkekFsn73Dq9TjM89"  >
<path style="stroke: none; stroke-width: 1; stroke-dasharray: none; stroke-linecap: butt; stroke-dashoffset: 0; stroke-linejoin: miter; stroke-miterlimit: 4; fill: rgb(153,153,153); fill-rule: nonzero; opacity: 1;" vector-effect="non-scaling-stroke"  transform=" translate(-452.87, -707.29)" d="M 520.597 746.372 L 520.597 589.9889999999999 L 385.144 668.1689999999999 L 385.144 824.5909999999999 z" stroke-linecap="round" />
</g>
		<g transform="matrix(1 0 0 1 67.75 -156.41)" id="v8W1PZn0d9r-pgXMecuoW"  >
<path style="stroke: none; stroke-width: 1; stroke-dasharray: none; stroke-linecap: butt; stroke-dashoffset: 0; stroke-linejoin: miter; stroke-miterlimit: 4; fill: rgb(65,65,255); fill-rule: nonzero; opacity: 1;" vector-effect="non-scaling-stroke"  transform=" translate(-452.87, -355.37)" d="M 249.683 277.153 L 385.128 355.353 L 249.683 433.579 L 385.144 511.778 L 656.058 355.38 L 385.128 198.954 z" stroke-linecap="round" />
</g>
		<g transform="matrix(1 0 0 1 135.48 39.1)" id="k2mN_WKd_O6NMvN34QEUo"  >
<path style="stroke: none; stroke-width: 1; stroke-dasharray: none; stroke-linecap: butt; stroke-dashoffset: 0; stroke-linejoin: miter; stroke-miterlimit: 4; fill: rgb(0,0,191); fill-rule: nonzero; opacity: 1;" vector-effect="non-scaling-stroke"  transform=" translate(-520.6, -550.88)" d="M 385.144 668.169 L 520.597 589.989 L 520.597 746.3720000000001 L 656.0649999999999 668.1850000000001 L 656.058 355.38000000000005 L 385.144 511.778 z" stroke-linecap="round" />
</g>
		<g transform="matrix(1 0 0 1 -135.46 78.2)" id="vF0fcsXNtMrPlUZzB8RaY"  >
<path style="stroke: none; stroke-width: 1; stroke-dasharray: none; stroke-linecap: butt; stroke-dashoffset: 0; stroke-linejoin: miter; stroke-miterlimit: 4; fill: rgb(204,204,204); fill-rule: nonzero; opacity: 1;" vector-effect="non-scaling-stroke"  transform=" translate(-249.66, -589.98)" d="M 249.683 589.95 L 249.683 433.57900000000006 L 114.22899999999998 355.36400000000003 L 114.17499999999998 668.1690000000001 L 385.144 824.5910000000001 L 385.144 668.1690000000001 z" stroke-linecap="round" />
</g>
</g>
</g>
</svg>